<?xml version="1.0" encoding="UTF-8" standalone="no"?>
<svg
   xmlns:dc="http://purl.org/dc/elements/1.1/"
   xmlns:cc="http://creativecommons.org/ns#"
   xmlns:rdf="http://www.w3.org/1999/02/22-rdf-syntax-ns#"
   xmlns:svg="http://www.w3.org/2000/svg"
   xmlns="http://www.w3.org/2000/svg"
   xmlns:sodipodi="http://sodipodi.sourceforge.net/DTD/sodipodi-0.dtd"
   xmlns:inkscape="http://www.inkscape.org/namespaces/inkscape"
   version="1.0"
   width="145"
   height="145"
   id="svg2"
   sodipodi:version="0.32"
   inkscape:version="0.47 r22583"
   sodipodi:docname="at_sign.svg">
  <metadata
     id="metadata9">
    <rdf:RDF>
      <cc:Work
         rdf:about="">
        <dc:format>image/svg+xml</dc:format>
        <dc:type
           rdf:resource="http://purl.org/dc/dcmitype/StillImage" />
      </cc:Work>
    </rdf:RDF>
  </metadata>
  <defs
     id="defs7">
    <inkscape:perspective
       sodipodi:type="inkscape:persp3d"
       inkscape:vp_x="0 : 72.5 : 1"
       inkscape:vp_y="0 : 1000 : 0"
       inkscape:vp_z="145 : 72.5 : 1"
       inkscape:persp3d-origin="72.5 : 48.333333 : 1"
       id="perspective7" />
  </defs>
  <sodipodi:namedview
     inkscape:window-height="938"
     inkscape:window-width="1280"
     inkscape:pageshadow="2"
     inkscape:pageopacity="0.0"
     borderopacity="1.0"
     bordercolor="#666666"
     pagecolor="#ffffff"
     id="base"
     inkscape:zoom="2.33125"
     inkscape:cx="80"
     inkscape:cy="61.983914"
     inkscape:window-x="0"
     inkscape:window-y="25"
     inkscape:current-layer="svg2"
     showgrid="false"
     inkscape:window-maximized="0" />
  <g
     style="font-size:144px;fill:#000000;font-family:Arial"
     id="text4">
    <path
       d="m 79.742187,98.375 c -3.046953,3.51563 -6.468825,6.35157 -10.265625,8.50781 -3.750067,2.10938 -7.523501,3.16406 -11.320312,3.16407 -4.171931,-1e-5 -8.226614,-1.21875 -12.164063,-3.65625 -3.937543,-2.4375 -7.148478,-6.1875 -9.632812,-11.250005 -2.437536,-5.06248 -3.656285,-10.617162 -3.65625,-16.664063 -3.5e-5,-7.453086 1.898401,-14.906203 5.695312,-22.359375 3.843706,-7.499938 8.601514,-13.124933 14.273438,-16.875 5.671815,-3.749925 11.179622,-5.624923 16.523437,-5.625 4.07805,7.7e-5 7.968671,1.078201 11.671875,3.234375 3.703039,2.109446 6.890536,5.343818 9.5625,9.703125 l 2.390625,-10.898437 12.585938,0 -10.125,47.179687 c -1.406346,6.562521 -2.10947,10.19533 -2.109375,10.898438 -9.5e-5,1.26564 0.468654,2.367201 1.40625,3.304687 0.984278,0.890637 2.156151,1.335949 3.515625,1.335938 2.48427,1.1e-5 5.74208,-1.429675 9.77344,-4.289063 5.34363,-3.74998 9.56238,-8.7656 12.65625,-15.046875 3.1405,-6.328087 4.71081,-12.843706 4.71094,-19.546875 -1.3e-4,-7.828066 -2.01576,-15.140559 -6.04688,-21.9375 -3.98449,-6.796795 -9.96105,-12.23429 -17.92969,-16.3125 C 93.335842,17.164155 84.570226,15.125095 74.960937,15.125 63.992122,15.125095 53.960882,17.703217 44.867187,22.859375 35.820275,27.968832 28.789032,35.3282 23.773437,44.9375 c -4.96877,9.562555 -7.453143,19.82817 -7.453125,30.796875 -1.8e-5,11.484398 2.484355,21.375013 7.453125,29.671875 5.015595,8.29687 12.234338,14.41405 21.65625,18.35156 9.468694,3.98436 19.945246,5.97655 31.429688,5.97656 12.281159,-1e-5 22.570211,-2.06251 30.867185,-6.18749 8.29676,-4.12501 14.50769,-9.14063 18.63282,-15.04688 l 12.72656,0 c -2.39077,4.92187 -6.49232,9.93749 -12.30469,15.04688 -5.81262,5.10935 -12.72668,9.1406 -20.74219,12.09374 -8.015722,2.99998 -17.671963,4.49997 -28.968748,4.5 -10.406318,-3e-5 -20.015683,-1.33596 -28.828125,-4.00781 C 39.476521,133.46091 31.999966,129.42967 25.8125,124.03906 19.624978,118.6953 14.960921,112.53125 11.820313,105.54688 7.8828027,96.687513 5.9140547,87.125023 5.9140625,76.859375 5.9140547,65.421919 8.2578024,54.523493 12.945313,44.164062 18.664042,31.461016 26.773409,21.734463 37.273437,14.984375 47.820263,8.2344766 60.593688,4.85948 75.59375,4.859375 c 11.624911,1.05e-4 22.054588,2.3907276 31.28906,7.171875 9.28113,4.734468 16.59363,11.812586 21.9375,21.234375 4.54674,8.109443 6.82018,16.921935 6.82031,26.4375 -1.3e-4,13.593787 -4.78138,25.664087 -14.34374,36.210937 -8.53137,9.468758 -17.85949,14.203128 -27.98438,14.203128 -3.234467,0 -5.859464,-0.49219 -7.875,-1.47656 -1.968835,-0.98438 -3.421959,-2.39063 -4.359375,-4.21875 -0.609457,-1.17187 -1.054769,-3.1875 -1.335938,-6.04688 M 45.710937,79.320312 c -4.7e-5,6.4219 1.523389,11.414082 4.570313,14.976563 3.04682,3.562512 6.539004,5.34376 10.476562,5.34375 2.624935,1e-5 5.390557,-0.773427 8.296875,-2.320313 2.906177,-1.593735 5.671799,-3.937483 8.296875,-7.03125 2.671794,-3.093727 4.851479,-7.007785 6.539063,-11.742187 1.687413,-4.781214 2.531162,-9.562459 2.53125,-14.34375 -8.8e-5,-6.374948 -1.593837,-11.320256 -4.78125,-14.835938 -3.140705,-3.515561 -6.984452,-5.273371 -11.53125,-5.273437 -3.000069,6.6e-5 -5.836004,0.773502 -8.507813,2.320312 -2.62506,1.500062 -5.179745,3.93756 -7.664062,7.3125 -2.484428,3.375053 -4.476614,7.476612 -5.976563,12.304688 -1.500048,4.828164 -2.250047,9.257847 -2.25,13.289062"
       style="font-size:144px;fill:#000000;font-family:Arial"
       id="path2814" />
  </g>
</svg>
