<?xml version="1.0" encoding="UTF-8" standalone="no"?>
<!-- Created with Inkscape (http://www.inkscape.org/) -->

<svg
   xmlns:dc="http://purl.org/dc/elements/1.1/"
   xmlns:cc="http://creativecommons.org/ns#"
   xmlns:rdf="http://www.w3.org/1999/02/22-rdf-syntax-ns#"
   xmlns:svg="http://www.w3.org/2000/svg"
   xmlns="http://www.w3.org/2000/svg"
   xmlns:sodipodi="http://sodipodi.sourceforge.net/DTD/sodipodi-0.dtd"
   xmlns:inkscape="http://www.inkscape.org/namespaces/inkscape"
   width="120"
   height="42"
   id="svg2759"
   sodipodi:version="0.32"
   inkscape:version="0.47 r22583"
   version="1.0"
   sodipodi:docname="by-nc-sa.eu-grau.svg"
   inkscape:output_extension="org.inkscape.output.svg.inkscape">
  <defs
     id="defs2761">
    <inkscape:perspective
       sodipodi:type="inkscape:persp3d"
       inkscape:vp_x="0 : 21 : 1"
       inkscape:vp_y="0 : 1000 : 0"
       inkscape:vp_z="120 : 21 : 1"
       inkscape:persp3d-origin="60 : 14 : 1"
       id="perspective2968" />
  </defs>
  <sodipodi:namedview
     id="base"
     pagecolor="#ffffff"
     bordercolor="#8b8b8b"
     borderopacity="1"
     gridtolerance="10000"
     guidetolerance="10"
     objecttolerance="10"
     inkscape:pageopacity="0.0"
     inkscape:pageshadow="2"
     inkscape:zoom="8.9285716"
     inkscape:cx="59.99998"
     inkscape:cy="21.000002"
     inkscape:document-units="px"
     inkscape:current-layer="layer1"
     width="120px"
     height="42px"
     inkscape:showpageshadow="false"
     inkscape:window-width="1198"
     inkscape:window-height="624"
     inkscape:window-x="170"
     inkscape:window-y="319"
     showgrid="false"
     inkscape:window-maximized="0" />
  <metadata
     id="metadata2764">
    <rdf:RDF>
      <cc:Work
         rdf:about="">
        <dc:format>image/svg+xml</dc:format>
        <dc:type
           rdf:resource="http://purl.org/dc/dcmitype/StillImage" />
      </cc:Work>
    </rdf:RDF>
  </metadata>
  <g
     inkscape:label="Layer 1"
     inkscape:groupmode="layer"
     id="layer1">
    <path
       style="fill:#ececec"
       d="M 3.4083297,0.45268464 116.76243,0.65404185 c 1.58383,0 2.99881,-0.23483394 2.99881,3.16052515 l -0.13878,37.329077 -119.07512582,0 0,-37.467843 c 0,-1.6743929 0.16206577,-3.22311636 2.86099552,-3.22311636 z"
       nodetypes="ccccccc"
       id="path3817_5_" />
    <path
       id="path120"
       d="m 117.7533,-1.417352e-6 -115.5056665,0 C 1.0083193,-1.417352e-6 -2.0408688e-5,1.0082254 -2.0408688e-5,2.2469141 l 0,39.2460639 c 0,0.279957 0.227098788688,0.50702 0.507563608688,0.50702 l 118.9848668,0 c 0.28048,0 0.50757,-0.227073 0.50757,-0.50702 l 0,-39.2460639 c 0,-1.2386887 -1.00834,-2.246915517352 -2.24668,-2.246915517352 z M 2.2476335,1.0150221 l 115.5056765,0 c 0.67933,0 1.23155,0.5526294 1.23155,1.2319019 0,0 0,15.796336 0,27.220625 l -82.556593,0 c -3.025983,5.471006 -8.856684,9.185621 -15.547234,9.185621 -6.692497,0 -12.5212501,-3.711217 -15.5452952,-9.185621 l -4.3206211,0 c 0,-11.424289 0,-27.220625 0,-27.220625 -9.9e-6,-0.6792725 0.5531682,-1.2319019 1.2325168,-1.2319019 z"
       style="fill:#cccccc" />
    <path
       id="path5906_5_"
       cx="296.35416"
       ry="22.939548"
       cy="264.3577"
       type="arc"
       rx="22.939548"
       d="m 34.522185,19.55125 c 0.0052,7.529675 -6.096639,13.636752 -13.626679,13.641592 -7.529987,0.0049 -13.6382769,-6.095931 -13.6430915,-13.625129 0,-0.0058 0,-0.01064 0,-0.01646 -0.0052,-7.529675 6.0965875,-13.6367519 13.6266265,-13.641618 7.530994,-0.00434 13.639231,6.095905 13.643144,13.625103 0,0.0054 0,0.01116 0,0.01651 z"
       style="fill:#ffffff" />
    <g
       id="g5706_5_"
       transform="matrix(0.8674921,0,0,0.8673951,-638.54905,153.79964)"
       style="fill:#cccccc">
      <path
         id="path5708_5_"
         d="m 772.94165,-167.5741 c 3.48486,3.48541 5.22778,7.75336 5.22778,12.80219 0,5.04938 -1.71277,9.27203 -5.13831,12.66794 -3.63586,3.57602 -7.93176,5.36374 -12.89001,5.36374 -4.89783,0 -9.11987,-1.77264 -12.66394,-5.31955 -3.54639,-3.54526 -5.31848,-7.78244 -5.31848,-12.71213 0,-4.92859 1.77209,-9.19598 5.31848,-12.80219 3.45459,-3.48651 7.67664,-5.22949 12.66394,-5.22949 5.04883,0 9.31458,1.74298 12.80054,5.22949 z m -23.11853,2.34485 c -2.94678,2.97638 -4.42017,6.46289 -4.42017,10.46179 0,3.9989 1.45886,7.45581 4.37427,10.37122 2.9176,2.9165 6.38904,4.37476 10.4176,4.37476 4.02856,0 7.53015,-1.47281 10.50708,-4.41895 2.82593,-2.73645 4.23889,-6.17767 4.23889,-10.32703 0,-4.11749 -1.4364,-7.61292 -4.30823,-10.48419 -2.87061,-2.87061 -6.34985,-4.30652 -10.43774,-4.30652 -4.08789,0 -7.54699,1.44318 -10.3717,4.32892 z m 7.75391,8.70319 c -0.44971,-0.98169 -1.12317,-1.47284 -2.02271,-1.47284 -1.58862,0 -2.38293,1.07007 -2.38293,3.20911 0,2.13953 0.79431,3.2085 2.38293,3.2085 1.04944,0 1.79895,-0.52075 2.24866,-1.56458 l 2.20276,1.17303 c -1.05042,1.86548 -2.62561,2.79901 -4.72546,2.79901 -1.62,0 -2.91772,-0.4967 -3.89209,-1.48956 -0.97546,-0.99341 -1.46326,-2.36334 -1.46326,-4.10852 0,-1.71503 0.50342,-3.07654 1.50806,-4.08502 1.00452,-1.00854 2.25757,-1.51257 3.75781,-1.51257 2.22058,0 3.8092,0.87488 4.77136,2.62286 l -2.38513,1.22058 z m 10.36389,0 c -0.45081,-0.98169 -1.11206,-1.47284 -1.98242,-1.47284 -1.62097,0 -2.43213,1.07007 -2.43213,3.20911 0,2.13953 0.81116,3.2085 2.43213,3.2085 1.05164,0 1.78772,-0.52075 2.20728,-1.56458 l 2.25195,1.17303 c -1.04822,1.86548 -2.62109,2.79901 -4.71765,2.79901 -1.61768,0 -2.91199,-0.4967 -3.88647,-1.48956 -0.97217,-0.99341 -1.45996,-2.36334 -1.45996,-4.10852 0,-1.71503 0.49451,-3.07654 1.48352,-4.08502 0.98779,-1.00854 2.24524,-1.51257 3.77344,-1.51257 2.21619,0 3.80371,0.87488 4.76135,2.62286 l -2.43104,1.22058 z"
         style="fill:#cccccc" />
    </g>
    <circle
       cx="491.94629"
       cy="90.231934"
       r="10.80615"
       id="circle128"
       sodipodi:cx="491.94629"
       sodipodi:cy="90.231934"
       sodipodi:rx="10.80615"
       sodipodi:ry="10.80615"
       style="fill:#ffffff"
       d="m 502.75244,90.231934 c 0,5.968072 -4.83808,10.806146 -10.80615,10.806146 -5.96807,0 -10.80615,-4.838074 -10.80615,-10.806146 0,-5.968072 4.83808,-10.806151 10.80615,-10.806151 5.96807,0 10.80615,4.838079 10.80615,10.806151 z"
       transform="matrix(0.9937808,0,0,0.9936696,-437.12334,-74.436914)" />
    <g
       id="g130"
       transform="matrix(0.9937808,0,0,0.9936696,-437.12334,-74.436914)"
       style="fill:#cccccc">
      <path
         d="m 495.07373,87.10498 c 0,-0.4165 -0.33789,-0.75391 -0.75391,-0.75391 l -4.77246,0 c -0.41602,0 -0.75391,0.3374 -0.75391,0.75391 l 0,4.77295 1.33105,0 0,5.65186 3.61719,0 0,-5.65186 1.33203,0 0,-4.77295 1e-5,0 z"
         id="path132"
         style="fill:#cccccc" />
      <circle
         cx="491.93359"
         cy="84.090332"
         r="1.63232"
         id="circle134"
         sodipodi:cx="491.93359"
         sodipodi:cy="84.090332"
         sodipodi:rx="1.63232"
         sodipodi:ry="1.63232"
         d="m 493.56591,84.090332 c 0,0.901505 -0.73081,1.63232 -1.63232,1.63232 -0.9015,0 -1.63232,-0.730815 -1.63232,-1.63232 0,-0.901505 0.73082,-1.63232 1.63232,-1.63232 0.90151,0 1.63232,0.730815 1.63232,1.63232 z"
         style="fill:#cccccc" />
    </g>
    <path
       clip-rule="evenodd"
       d="m 51.735781,3.3924562 c -3.211353,0 -5.930656,1.1207897 -8.155989,3.3623692 -2.283559,2.318728 -3.424857,5.0634426 -3.424857,8.2322246 0,3.168783 1.141298,5.89409 3.424857,8.17497 2.283559,2.279428 5.002871,3.420101 8.155989,3.420101 3.192908,0 5.960747,-1.149417 8.302531,-3.449703 2.205926,-2.18336 3.308396,-4.898483 3.308396,-8.145378 0,-3.246895 -1.121889,-5.990645 -3.366631,-8.2322245 C 57.735335,4.513236 54.987889,3.3924562 51.735781,3.3924562 z m 0.03011,2.0863086 c 2.631969,0 4.866028,0.9281669 6.704135,2.7835369 1.858489,1.8354763 2.787247,4.0775433 2.787247,6.7247383 0,2.666602 -0.909349,4.879554 -2.729011,6.638369 -1.915742,1.893696 -4.170193,2.840305 -6.762371,2.840305 -2.594115,0 -4.829158,-0.936901 -6.706082,-2.811677 -1.876924,-1.87429 -2.815391,-4.096463 -2.815391,-6.666997 0,-2.570534 0.948166,-4.811636 2.844499,-6.7247383 1.819682,-1.85536 4.045005,-2.7835369 6.676974,-2.7835369 z"
       id="path136"
       style="fill-rule:evenodd;fill:#cccccc" />
    <g
       id="g138"
       enable-background="new    "
       transform="matrix(0.9937808,0,0,0.9936696,-437.12334,-74.436914)">
      <path
         style="fill:#ffffff"
         id="path140"
         d="m 488.56299,107.86719 c 0.31738,0 0.60742,0.0283 0.86914,0.084 0.26172,0.0557 0.48633,0.14746 0.67383,0.27539 0.18652,0.12695 0.33105,0.29688 0.43457,0.50781 0.10254,0.21191 0.1543,0.47266 0.1543,0.78418 0,0.33594 -0.0762,0.61523 -0.22949,0.83887 -0.15234,0.22461 -0.37891,0.40723 -0.67773,0.55078 0.41211,0.11816 0.71973,0.3252 0.92285,0.62109 0.20312,0.29589 0.30469,0.65234 0.30469,1.06934 0,0.33594 -0.0654,0.62695 -0.19629,0.87305 -0.13086,0.24512 -0.30762,0.44629 -0.5293,0.60156 -0.2207,0.15625 -0.47363,0.27148 -0.75684,0.3457 -0.28418,0.0752 -0.5752,0.1123 -0.875,0.1123 l -3.23633,0 0,-6.66406 3.1416,0 0,1e-5 z m -0.1875,2.69531 c 0.26172,0 0.47656,-0.0625 0.64453,-0.18652 0.16895,-0.12402 0.25293,-0.3252 0.25293,-0.60449 0,-0.15527 -0.0283,-0.2832 -0.084,-0.38184 -0.0566,-0.0996 -0.13086,-0.17676 -0.22461,-0.2334 -0.0937,-0.0557 -0.20117,-0.0947 -0.32227,-0.11621 -0.12207,-0.0215 -0.24805,-0.0322 -0.37891,-0.0322 l -1.37305,0 0,1.55469 1.48536,0 z m 0.0859,2.82812 c 0.14355,0 0.28027,-0.0137 0.41113,-0.042 0.13086,-0.0283 0.24609,-0.0752 0.34668,-0.13965 0.0996,-0.0654 0.17871,-0.1543 0.23828,-0.2666 0.0586,-0.11133 0.0889,-0.25488 0.0889,-0.42871 0,-0.3418 -0.0967,-0.58594 -0.29004,-0.73242 -0.19336,-0.14551 -0.44922,-0.21875 -0.7666,-0.21875 l -1.59961,0 0,1.82812 1.57129,0 z" />
      <path
         style="fill:#ffffff"
         id="path142"
         d="m 491.27393,107.86719 1.64258,0 1.56055,2.63184 1.55176,-2.63184 1.63379,0 -2.47461,4.10645 0,2.55762 -1.46875,0 0,-2.59473 -2.44532,-4.06934 z" />
    </g>
    <g
       id="g144"
       enable-background="new    "
       transform="matrix(0.9937808,0,0,0.9936696,-437.12334,-74.436914)">
      <path
         style="fill:#ffffff"
         id="path146"
         d="m 538.91553,112.88379 c 0.0811,0.15527 0.1875,0.28125 0.32129,0.37793 0.13379,0.0967 0.29004,0.16797 0.4707,0.21484 0.17969,0.0469 0.36523,0.0703 0.55859,0.0703 0.12988,0 0.26953,-0.0107 0.41895,-0.0332 0.14844,-0.0215 0.28809,-0.0635 0.41895,-0.12598 0.12988,-0.0615 0.23828,-0.14746 0.32617,-0.25684 0.0859,-0.1084 0.12988,-0.24707 0.12988,-0.41504 0,-0.18066 -0.0576,-0.32617 -0.17285,-0.43848 -0.11426,-0.1123 -0.26562,-0.20508 -0.45117,-0.28027 -0.18652,-0.0742 -0.39844,-0.13965 -0.63379,-0.19629 -0.23633,-0.0557 -0.47559,-0.11816 -0.71777,-0.18652 -0.24902,-0.0625 -0.49121,-0.13867 -0.72754,-0.22852 -0.23535,-0.0898 -0.44727,-0.20703 -0.63379,-0.35059 -0.18555,-0.14258 -0.33691,-0.32129 -0.45117,-0.53613 -0.11523,-0.21484 -0.17285,-0.47461 -0.17285,-0.7793 0,-0.34277 0.0732,-0.63965 0.21875,-0.8916 0.14648,-0.25195 0.33789,-0.46191 0.57324,-0.63086 0.23633,-0.16797 0.50391,-0.29199 0.80273,-0.37305 0.29785,-0.0811 0.59668,-0.12109 0.89453,-0.12109 0.34863,0 0.68262,0.0391 1.00293,0.11719 0.31934,0.0772 0.60449,0.2041 0.85254,0.37793 0.24902,0.1748 0.44629,0.39746 0.59277,0.66797 0.14551,0.27148 0.21875,0.59961 0.21875,0.98535 l -1.42188,0 c -0.0127,-0.19922 -0.0537,-0.36426 -0.125,-0.49414 -0.0713,-0.13086 -0.16602,-0.2334 -0.28418,-0.30859 -0.11719,-0.0742 -0.25195,-0.12793 -0.40332,-0.1582 -0.15137,-0.0313 -0.31738,-0.0469 -0.49707,-0.0469 -0.11719,0 -0.23535,0.0127 -0.35254,0.0371 -0.11816,0.0254 -0.22461,0.0684 -0.32031,0.13086 -0.0967,0.0625 -0.1748,0.13965 -0.2373,0.2334 -0.0615,0.0937 -0.0928,0.21191 -0.0928,0.35449 0,0.13086 0.0244,0.2373 0.0742,0.31738 0.0498,0.0811 0.14746,0.15625 0.29395,0.22461 0.14649,0.0684 0.34766,0.13672 0.60547,0.20508 0.25781,0.0684 0.5957,0.15625 1.01172,0.26172 0.12402,0.0244 0.29688,0.0703 0.5166,0.13574 0.2207,0.0654 0.44043,0.16895 0.65723,0.3125 0.21777,0.14355 0.40527,0.33496 0.56445,0.57422 0.1582,0.23926 0.2373,0.5459 0.2373,0.91992 0,0.30469 -0.0596,0.58789 -0.17773,0.84961 -0.11816,0.26172 -0.29395,0.4873 -0.52734,0.67676 -0.2334,0.19043 -0.52246,0.33789 -0.86816,0.44336 -0.34473,0.10645 -0.74414,0.15918 -1.19922,0.15918 -0.36719,0 -0.72266,-0.0459 -1.06836,-0.13574 -0.3457,-0.0908 -0.65039,-0.23242 -0.91406,-0.42578 -0.26465,-0.19336 -0.47461,-0.44043 -0.63086,-0.73926 -0.15527,-0.29883 -0.23047,-0.65332 -0.22363,-1.06445 l 1.42188,0 c -3e-5,0.22364 0.04,0.41407 0.12107,0.56934 z" />
      <path
         style="fill:#ffffff"
         id="path148"
         d="m 547.17236,107.86719 2.49219,6.66406 -1.52148,0 -0.50391,-1.48438 -2.49219,0 -0.52344,1.48438 -1.47461,0 2.52051,-6.66406 1.50293,0 z m 0.084,4.08593 -0.83984,-2.44336 -0.0195,0 -0.86719,2.44336 1.72656,0 z" />
    </g>
    <g
       id="g150"
       enable-background="new    "
       transform="matrix(0.9937808,0,0,0.9936696,-437.12334,-74.436914)">
      <path
         style="fill:#ffffff"
         id="path152"
         d="m 512.83057,107.86719 2.78418,4.4707 0.0156,0 0,-4.4707 1.375,0 0,6.66406 -1.46582,0 -2.77344,-4.46191 -0.0186,0 0,4.46191 -1.375,0 0,-6.66406 1.45801,0 z" />
      <path
         style="fill:#ffffff"
         id="path154"
         d="m 522.56885,109.64258 c -0.0869,-0.14062 -0.19629,-0.26367 -0.32715,-0.36914 -0.13086,-0.10547 -0.27832,-0.18848 -0.44336,-0.24707 -0.16504,-0.0596 -0.33789,-0.0889 -0.51758,-0.0889 -0.33008,0 -0.61035,0.0635 -0.84082,0.19141 -0.23047,0.12695 -0.41699,0.29785 -0.55957,0.5127 -0.14355,0.21484 -0.24805,0.45898 -0.31348,0.73242 -0.0654,0.27344 -0.0977,0.55664 -0.0977,0.84863 0,0.28027 0.0322,0.55273 0.0977,0.81641 0.0654,0.26465 0.16992,0.50293 0.31348,0.71387 0.14258,0.21191 0.3291,0.38086 0.55957,0.50879 0.23047,0.12793 0.51074,0.19141 0.84082,0.19141 0.44727,0 0.79785,-0.13672 1.0498,-0.41113 0.25195,-0.27344 0.40625,-0.63477 0.46191,-1.08301 l 1.41895,0 c -0.0371,0.41699 -0.13379,0.79395 -0.28906,1.12988 -0.15527,0.33691 -0.36133,0.62305 -0.61621,0.86035 -0.25488,0.2373 -0.55371,0.41797 -0.89648,0.54297 -0.3418,0.125 -0.71875,0.1875 -1.12891,0.1875 -0.51074,0 -0.96973,-0.0889 -1.37793,-0.2666 -0.40723,-0.17676 -0.75195,-0.42188 -1.03223,-0.73242 -0.28027,-0.31152 -0.49609,-0.67773 -0.64551,-1.09766 -0.14941,-0.4209 -0.22461,-0.87305 -0.22461,-1.35938 0,-0.49805 0.0752,-0.95996 0.22461,-1.38672 0.14941,-0.42676 0.36523,-0.79883 0.64551,-1.11621 0.28028,-0.31738 0.625,-0.56641 1.03223,-0.74707 0.4082,-0.18066 0.86719,-0.27051 1.37793,-0.27051 0.36719,0 0.71387,0.0527 1.04004,0.15918 0.32715,0.10547 0.62012,0.25977 0.87793,0.46289 0.25879,0.20215 0.47168,0.45312 0.63965,0.75195 0.16797,0.29883 0.27344,0.6416 0.31738,1.02734 l -1.41895,0 c -0.0254,-0.16797 -0.0811,-0.32226 -0.16796,-0.46191 z" />
    </g>
    <path
       id="path6334_1_"
       cx="475.97119"
       ry="29.209877"
       cy="252.08646"
       type="arc"
       rx="29.209877"
       d="m 114.57975,14.980747 c 0.005,5.84509 -4.73117,10.587333 -10.57734,10.591693 -5.846239,0.0031 -10.588026,-4.730605 -10.592951,-10.577136 0,-0.0043 0,-0.01019 0,-0.01453 -0.0037,-5.8450898 4.73216,-10.5873335 10.577411,-10.5916932 5.84624,-0.00435 10.58803,4.7310961 10.59288,10.5756952 0,0.0056 0,0.01019 0,0.01602 z"
       style="fill:#ffffff" />
    <g
       id="g6336_1_"
       transform="matrix(0.621108,0,0,0.6210385,-300.64866,184.76402)"
       style="fill:#cccccc">
      <path
         id="path6338_1_"
         d="m 651.36426,-292.05655 c -5.17188,0 -9.55005,1.80548 -13.13135,5.41333 -3.67651,3.73444 -5.51562,8.15399 -5.51562,13.25714 0,5.10315 1.83911,9.48993 5.51562,13.1626 3.67505,3.67194 8.05322,5.50787 13.13135,5.50787 5.14075,0 9.59546,-1.85236 13.36572,-5.55396 3.55164,-3.51721 5.32825,-7.88916 5.32825,-13.11652 0,-5.22742 -1.80627,-9.64697 -5.422,-13.25714 -3.61401,-3.60784 -8.03748,-5.41332 -13.27197,-5.41332 z m 0.0469,3.36096 c 4.23755,0 7.83447,1.49298 10.79541,4.48132 2.99072,2.95544 4.48596,6.56329 4.48596,10.82819 0,4.29376 -1.46399,7.85632 -4.3938,10.68994 -3.08276,3.04846 -6.71411,4.57269 -10.88757,4.57269 -4.17505,0 -7.77344,-1.5094 -10.79541,-4.5274 -3.02185,-3.01874 -4.53284,-6.59613 -4.53284,-10.73523 0,-4.1391 1.52502,-7.74847 4.57971,-10.82819 2.92823,-2.98834 6.51099,-4.48132 10.74854,-4.48132 z"
         style="fill:#cccccc" />
      <path
         id="path6340_1_"
         d="m 643.08923,-276.02048 c 0.74377,-4.69849 4.05005,-7.20941 8.19543,-7.20941 5.95935,0 9.59216,4.32501 9.59216,10.09222 0,5.62817 -3.8656,9.99854 -9.68604,9.99854 -4.00464,0 -7.59058,-2.46332 -8.24219,-7.30084 l 4.70312,0 c 0.14062,2.51099 1.77039,3.39532 4.09851,3.39532 2.6532,0 4.37659,-2.46484 4.37659,-6.23206 0,-3.95471 -1.48901,-6.04614 -4.28442,-6.04614 -2.04846,0 -3.81726,0.74451 -4.19067,3.30237 l 1.36719,-0.009 -3.70154,3.70319 -3.70166,-3.70319 1.47352,0.009 z"
         style="fill:#cccccc" />
    </g>
    <path
       id="path6372_1_"
       cx="475.97119"
       ry="29.209877"
       cy="252.08646"
       type="arc"
       rx="29.209877"
       d="m 87.801896,14.990845 c 0.0048,5.500587 -4.451603,9.961917 -9.953251,9.966304 -5.500714,0.0034 -9.962985,-4.45211 -9.966848,-9.951763 0,-0.0058 0,-0.01019 0,-0.01454 -0.0039,-5.5010769 4.452572,-9.962406 9.953251,-9.9667819 5.50068,-0.00341 9.96295,4.4521099 9.966848,9.9517289 0,0.0049 0,0.01019 0,0.01505 z"
       style="fill:#ffffff" />
    <path
       id="path45"
       d="m 86.070866,6.7551881 c -2.24512,-2.242292 -4.99278,-3.3627319 -8.24368,-3.3627319 -3.21268,0 -5.93132,1.1204399 -8.15662,3.3627319 -2.28405,2.3194421 -3.42502,5.0635629 -3.42502,8.2337709 0,3.169502 1.14097,5.89522 3.42502,8.175023 2.28334,2.28122 5.00198,3.421479 8.15662,3.421479 3.19286,0 5.96033,-1.150166 8.30171,-3.449789 2.2062,-2.184252 3.30965,-4.900058 3.30965,-8.146713 0,-3.247361 -1.12256,-5.9921888 -3.36768,-8.2337708 z m -1.45169,14.8728809 c -1.916,1.894056 -4.17032,2.840378 -6.76297,2.840378 -2.59336,0 -4.82858,-0.93712 -6.70565,-2.812068 -1.87707,-1.874948 -2.8156,-4.097421 -2.8156,-6.667423 0,-1.087172 0.17164,-2.114891 0.51103,-3.083862 l 3.07288,1.360027 -0.22154,0 0,1.378074 1.08753,0 c 0,0.194644 -0.01946,0.388581 -0.01946,0.582514 l 0,0.33054 -1.06807,0 0,1.378074 1.262,0 c 0.17482,1.029132 0.56305,1.863623 1.08717,2.523993 1.08717,1.436821 2.83436,2.213272 4.73692,2.213272 1.24288,0 2.36828,-0.368761 3.02865,-0.738229 l -0.46644,-2.154525 c -0.40769,0.213752 -1.31933,0.504658 -2.21257,0.504658 -0.97109,0 -1.88308,-0.290902 -2.50452,-0.990204 -0.29126,-0.329833 -0.50466,-0.776451 -0.6402,-1.358965 l 4.22057,0 5.99714,2.654584 c -0.41547,0.736114 -0.94277,1.416303 -1.58687,2.039162 z m -7.54225,-6.071813 -0.02548,-0.01946 0.04388,0.01946 -0.0184,0 z m 3.61045,-0.913054 0.17342,0 0,-1.378074 -3.287,0 -1.33525,-0.591008 c 0.11501,-0.258345 0.25091,-0.489441 0.40945,-0.670281 0.60198,-0.738937 1.45594,-1.048951 2.3881,-1.048951 0.85431,0 1.64987,0.251974 2.15453,0.46573 l 0.54358,-2.2132728 c -0.6993,-0.310015 -1.72773,-0.581808 -2.91187,-0.581808 -1.82469,0 -3.37794,0.737523 -4.48458,1.9797018 -0.2456,0.283824 -0.45865,0.602333 -0.65188,0.939244 l -3.8136,-1.6877378 c 0.36947,-0.554204 0.80406,-1.086465 1.3073,-1.593953 1.81974,-1.855836 4.04434,-2.783755 6.67662,-2.783755 2.63158,0 4.8668,0.927919 6.70565,2.783755 1.85725,1.8360198 2.78588,4.0776018 2.78588,6.7261708 0,0.872709 -0.0991,1.695876 -0.29445,2.471617 l -6.3659,-2.817378 z"
       style="fill:#cccccc" />
  </g>
</svg>
